# xmcd
#
# Track frame offsets:
#	150
#	22600
#	35195
#	54235
#	69680
#	85965
#	109810
#	122665
#	145540
#	154665
#	178100
#	190155
#	204770
#	231755
#
# Disc length: 3351 seconds
#
# Revision: 1
# Processed by: cddbd v1.5PL3 Copyright (c) Steve Scherf et al.
# Submitted via: audiograbber 1.83.01
#
DISCID=b20d150e
DTITLE=Muhlis Akarsu - Seçmeler 1
DYEAR=1900
DGENRE=
TTITLE0=Nenni Nenni
TTITLE1=Ayrilamam
TTITLE2=Ben Bu Askin çilesini
TTITLE3=Olü Gelin/sorsunlar Beni
TTITLE4=Yilana Bak
TTITLE5=Allah Allah Desem Gelsem
TTITLE6=Deli Gönlüm
TTITLE7=Artik çekemem
TTITLE8=Gelsin Artik Bizim Elin Bahari
TTITLE9=Nasibimiz Yokmus
TTITLE10=Yoruldum Yorgunum
TTITLE11=Kula Kulluk Yakisir Mi?
TTITLE12=Hizir Pasa
TTITLE13=Ayirma Bizi Kendinden
EXTD=
EXTT0=
EXTT1=
EXTT2=
EXTT3=
EXTT4=
EXTT5=
EXTT6=
EXTT7=
EXTT8=
EXTT9=
EXTT10=
EXTT11=
EXTT12=
EXTT13=
PLAYORDER=
